<svg id="Capa_1" data-name="Capa 1" xmlns="http://www.w3.org/2000/svg" viewBox="0 0 578.71 135.63"><defs><style>.cls-1{fill:#ff7d43;}</style></defs><polygon class="cls-1" points="140.76 6.9 140.76 6.93 112.89 6.93 87.58 125.1 62.26 6.92 34.39 6.92 34.39 6.89 2.48 6.89 2.48 128.68 34.39 128.68 34.39 10.56 59.7 128.71 86.8 128.71 86.8 128.73 115.45 128.73 140.76 10.57 140.76 128.7 172.67 128.7 172.67 6.9 140.76 6.9"/><path class="cls-1" d="M248.81,3.52A64.3,64.3,0,1,0,313.1,67.81,64.29,64.29,0,0,0,248.81,3.52Zm0,100a35.74,35.74,0,1,1,35.74-35.74A35.74,35.74,0,0,1,248.81,103.55Z"/><path class="cls-1" d="M419.48,80.72a35.75,35.75,0,1,1,0-25.81h29.67a64.3,64.3,0,1,0,0,25.81Z"/><path class="cls-1" d="M545.16,128.71h31.07L542.44,6.91H482.25l-33.78,121.8h31.07l6.59-23.78h52.43Zm-51.4-51.27,18.59-67,18.59,67Z"/></svg>